HIERARCHY
ROOT Hips
{
	OFFSET	0.00	0.00	0.00
	CHANNELS 6 Xposition Yposition Zposition Zrotation Xrotation Yrotation
	JOINT LeftUpLeg
	{
		OFFSET	 0.126116	-0.014019	-0.065224
		CHANNELS 3 Zrotation Xrotation Yrotation
		JOINT LeftLeg
		{
			OFFSET	 0.000000	 0.000000	 0.569914
			CHANNELS 3 Zrotation Xrotation Yrotation
			JOINT LeftFoot
			{
				OFFSET	 0.000000	 0.000000	 0.544423
				CHANNELS 3 Zrotation Xrotation Yrotation
				JOINT LeftToeBase
				{
					OFFSET	 0.000000	 0.000000	 0.207117
					CHANNELS 3 Zrotation Xrotation Yrotation
					End Site
					{
						OFFSET	 0.000000	 0.000000	 0.207117
					}
				}
			}
		}
	}
	JOINT RightUpLeg
	{
		OFFSET	-0.124023	-0.008373	-0.065224
		CHANNELS 3 Zrotation Xrotation Yrotation
		JOINT RightLeg
		{
			OFFSET	 0.000000	 0.000000	 0.570047
			CHANNELS 3 Zrotation Xrotation Yrotation
			JOINT RightFoot
			{
				OFFSET	 0.000000	 0.000000	 0.544354
				CHANNELS 3 Zrotation Xrotation Yrotation
				JOINT RightToeBase
				{
					OFFSET	 0.000000	 0.000000	 0.207540
					CHANNELS 3 Zrotation Xrotation Yrotation
					End Site
					{
						OFFSET	 0.000000	 0.000000	 0.207540
					}
				}
			}
		}
	}
	JOINT Spine
	{
		OFFSET	 0.000184	-0.007763	 0.117403
		CHANNELS 3 Zrotation Xrotation Yrotation
		JOINT Spine1
		{
			OFFSET	 0.000000	 0.000000	 0.137269
			CHANNELS 3 Zrotation Xrotation Yrotation
			JOINT Spine2
			{
				OFFSET	 0.000000	 0.000000	 0.156879
				CHANNELS 3 Zrotation Xrotation Yrotation
				JOINT LeftShoulder
				{
					OFFSET	 0.080501	-0.002496	 0.160144
					CHANNELS 3 Zrotation Xrotation Yrotation
					JOINT LeftArm
					{
						OFFSET	 0.000000	 0.000000	 0.164363
						CHANNELS 3 Zrotation Xrotation Yrotation
						JOINT LeftForeArm
						{
							OFFSET	 0.000000	 0.000000	 0.364576
							CHANNELS 3 Zrotation Xrotation Yrotation
							JOINT LeftHand
							{
								OFFSET	 0.000000	 0.000000	 0.360812
								CHANNELS 3 Zrotation Xrotation Yrotation
								JOINT LeftHandIndex1
								{
									OFFSET	 0.000000	 0.000000	 0.086006
									CHANNELS 3 Zrotation Xrotation Yrotation
									JOINT LeftHandIndex2
									{
										OFFSET	 0.000000	 0.000000	 0.047236
										CHANNELS 3 Zrotation Xrotation Yrotation
										JOINT LeftHandIndex3
										{
											OFFSET	-0.004284	-0.000551	 0.038166
											CHANNELS 3 Zrotation Xrotation Yrotation
											End Site
											{
												OFFSET	-0.004284	-0.000551	 0.038166
											}
										}
									}
								}
							}
						}
					}
				}
				JOINT Neck
				{
					OFFSET	 0.000000	 0.000000	 0.176489
					CHANNELS 3 Zrotation Xrotation Yrotation
					JOINT Head
					{
						OFFSET	 0.000000	-0.001747	 0.077940
						CHANNELS 3 Zrotation Xrotation Yrotation
						End Site
						{
							OFFSET	 0.000000	-0.001747	 0.077940
						}
					}
				}
				JOINT RightShoulder
				{
					OFFSET	-0.080363	 0.000306	 0.159706
					CHANNELS 3 Zrotation Xrotation Yrotation
					JOINT RightArm
					{
						OFFSET	 0.000000	 0.000000	 0.164196
						CHANNELS 3 Zrotation Xrotation Yrotation
						JOINT RightForeArm
						{
							OFFSET	 0.000000	 0.000000	 0.365611
							CHANNELS 3 Zrotation Xrotation Yrotation
							JOINT RightHand
							{
								OFFSET	 0.000000	 0.000000	 0.360648
								CHANNELS 3 Zrotation Xrotation Yrotation
								JOINT RightHandIndex1
								{
									OFFSET	 0.000000	 0.000000	 0.069977
									CHANNELS 3 Zrotation Xrotation Yrotation
									JOINT RightHandIndex2
									{
										OFFSET	 0.000000	 0.000000	 0.052305
										CHANNELS 3 Zrotation Xrotation Yrotation
										JOINT RightHandIndex3
										{
											OFFSET	 0.009002	-0.000782	 0.042196
											CHANNELS 3 Zrotation Xrotation Yrotation
											End Site
											{
												OFFSET	 0.009002	-0.000782	 0.042196
											}
										}
									}
								}
							}
						}
					}
				}
			}
		}
	}
}
MOTION
Frames:    7
Frame Time: 0.03333334
 0.012502	 0.063392	 1.202040	 4.617909	-1.530579	-3.395311	-5.542583	-13.198020	-170.200800	 0.722153	-38.500640	 0.184068	 45.829930	 79.982130	-49.520620	-2.370423	 31.442830	-0.066034	 2.122013	-28.893510	-175.204000	 10.787570	-53.029160	 9.269360	 19.843490	 75.129990	-16.312780	 2.358379	 33.087140	 0.105243	-0.824954	 8.815198	 1.292553	 0.557867	 2.585017	 1.844103	-4.959165	-2.629931	-2.315561	-93.866120	 58.902060	 175.550200	 21.993350	 41.633370	-35.073440	-0.865482	-0.373327	-3.283848	-0.556821	-17.654770	-7.017987	-4.870522	 19.224440	-2.787809	-3.882501	 21.460250	 2.203755	-4.807148	 5.558609	 0.146202	-0.098134	-5.048581	 0.172806	-7.000618	 2.092707	 2.393127	 89.802830	 61.618300	-179.950700	-20.168520	 52.355300	 9.668426	-1.345988	-2.821622	 14.607150	-4.841140	-3.313780	 0.660720	 6.297949	 25.323080	-0.556828	 1.821570	 45.212260	-6.936044	 0.456893	 24.579720	 3.603580
 0.012173	 0.058586	 1.201612	 5.065441	-1.313371	-3.384449	-6.048777	-13.289910	-170.256300	 0.955327	-38.574990	 0.375766	 46.070690	 80.119190	-49.997510	-2.369655	 31.572120	-0.068957	 1.187014	-29.593180	-175.121000	 11.182090	-52.590590	 9.534850	 28.688710	 78.240940	-25.777560	 2.358828	 33.020690	 0.103707	-1.144609	 8.713981	 1.225918	 0.579583	 2.371651	 1.904529	-5.026660	-2.606826	-2.319475	-93.948670	 58.949620	 175.368300	 22.397770	 41.323620	-34.335300	-1.295177	-0.611466	-5.750653	-0.540869	-17.840920	-7.782646	-4.870162	 19.241600	-2.790603	-3.878899	 21.506460	 2.200083	-4.806317	 5.568386	 0.145631	-0.073494	-5.077997	 0.185385	-6.982221	 2.068283	 2.292033	 89.776900	 61.650540	 179.987700	-19.903650	 52.563870	 9.079327	-1.489085	-2.902653	 14.813690	-4.844250	-3.142309	 0.562673	 6.292497	 24.736730	-0.539060	 1.901279	 44.572810	-7.007173	 0.548526	 24.178480	 3.557003
 0.011723	 0.050520	 1.200970	 5.574587	-0.875304	-3.400767	-6.542139	-13.429210	-170.300100	 1.183100	-38.633040	 0.518454	 46.368740	 80.224530	-50.479220	-2.368782	 31.716960	-0.072236	-0.078135	-30.822280	-174.978700	 11.889780	-51.709890	 9.988974	 46.049830	 81.130890	-44.052400	 2.358981	 32.998750	 0.103191	-1.454866	 8.427786	 1.117936	 0.592344	 2.141567	 2.046228	-5.118713	-2.606335	-2.362292	-94.071220	 58.974720	 175.103900	 22.651600	 40.808880	-33.676170	-1.551427	-0.844511	-8.266184	-0.257882	-18.195740	-8.311149	-4.866248	 19.342970	-2.797506	-3.872140	 21.592760	 2.193216	-4.804798	 5.586364	 0.144579	-0.047107	-5.099030	 0.219632	-6.984836	 2.044153	 2.209470	 89.730240	 61.732620	 179.876000	-19.555590	 52.895260	 8.244184	-1.858980	-3.054778	 15.050900	-4.988523	-2.931173	 0.389509	 6.280864	 23.875580	-0.547076	 2.004505	 43.720190	-7.098896	 0.729610	 23.377010	 3.466512
 0.011256	 0.041570	 1.200323	 6.006595	-0.479279	-3.422651	-6.982158	-13.439910	-170.342400	 1.361373	-38.639350	 0.629857	 46.898270	 80.368910	-51.151600	-2.368039	 31.839310	-0.075016	-1.143202	-31.983130	-174.860900	 12.341370	-50.636200	 10.198640	 71.492770	 82.191010	-70.373090	 2.359056	 32.987300	 0.102929	-1.719939	 8.162733	 1.022385	 0.592825	 1.976377	 2.173035	-5.199078	-2.622296	-2.403425	-94.178700	 58.992280	 174.872200	 22.730870	 40.231310	-33.374740	-1.718894	-0.997107	-10.018900	-0.010652	-18.517590	-8.716066	-4.862463	 19.439710	-2.803857	-3.866045	 21.670350	 2.187019	-4.803428	 5.602496	 0.143629	-0.024976	-5.115145	 0.251313	-6.990215	 2.024350	 2.143780	 89.688570	 61.808200	 179.775700	-19.253720	 53.208830	 7.437563	-2.201076	-3.194417	 15.250400	-5.126820	-2.759564	 0.234354	 6.270199	 23.120510	-0.557721	 2.091264	 42.981480	-7.175633	 0.891254	 22.652110	 3.387513
 0.010953	 0.027957	 1.199444	 6.285275	-0.019905	-3.624828	-7.242845	-13.141860	-170.202400	 1.491332	-38.403270	 0.707356	 48.299390	 80.573670	-52.687170	-2.366621	 32.069110	-0.080253	-1.547947	-33.420940	-174.415400	 12.725720	-48.885670	 10.239910	 86.090900	 81.237050	-86.065110	 2.360356	 32.794620	 0.098461	-1.873078	 7.783270	 1.091621	 0.601675	 2.015407	 2.301877	-5.273420	-2.699856	-2.459991	-94.289750	 58.989400	 174.636000	 22.573940	 39.357650	-33.358710	-2.212579	-1.067725	-11.721840	 0.042762	-19.105030	-8.483353	-4.853289	 19.649640	-2.812706	-3.856019	 21.797810	 2.176836	-4.798001	 5.666317	 0.139893	-0.012667	-5.153921	 0.288298	-7.019039	 1.999165	 2.121733	 89.613170	 61.897120	 179.593500	-18.840690	 53.586480	 6.434761	-2.874578	-3.429096	 15.432720	-5.518871	-2.515504	-0.283301	 6.252188	 22.049750	-0.593078	 2.189893	 42.116050	-7.262446	 1.133497	 21.549000	 3.272322
 0.010608	 0.013334	 1.198500	 6.505836	 0.384778	-3.827428	-7.468046	-12.686680	-170.062500	 1.595204	-38.089250	 0.766552	 50.038990	 80.806120	-54.543690	-2.365248	 32.287020	-0.085233	-1.727963	-34.663480	-173.961600	 12.845810	-46.781220	 10.001400	 91.662610	 79.961640	-92.546330	 2.361570	 32.611090	 0.094221	-2.000624	 7.437708	 1.176121	 0.599170	 2.111466	 2.405936	-5.337032	-2.790948	-2.508868	-94.386060	 58.984110	 174.431400	 22.264520	 38.420230	-33.670730	-2.664041	-1.060535	-12.739290	 0.049121	-19.655160	-8.188087	-4.844514	 19.847830	-2.820691	-3.846702	 21.915780	 2.167370	-4.792658	 5.729205	 0.136200	-0.003262	-5.190858	 0.320958	-7.046990	 1.976531	 2.108148	 89.543370	 61.975830	 179.424000	-18.456710	 53.932740	 5.488616	-3.516015	-3.628967	 15.488260	-5.888856	-2.304951	-0.786334	 6.234988	 21.074710	-0.627370	 2.275604	 41.341040	-7.337511	 1.351942	 20.537180	 3.171836
 0.010195	-0.003068	 1.197431	 6.570511	 0.569291	-4.004071	-7.604137	-11.821690	-169.921600	 1.648301	-37.656810	 0.791599	 51.144570	 80.925870	-55.717800	-2.361753	 32.824920	-0.097602	-1.065611	-35.443330	-173.371400	 12.338690	-44.280470	 9.225763	 106.301200	 77.803890	-107.608300	 2.356809	 33.314300	 0.110548	-2.119955	 7.175289	 1.291656	 0.602001	 2.495380	 2.428801	-5.357011	-2.953231	-2.520603	-94.432740	 58.972180	 174.333900	 21.568810	 37.524570	-34.208460	-3.000363	-1.023135	-13.228010	-0.105638	-19.902860	-7.916311	-4.834227	 20.050530	-2.821773	-3.834873	 22.065110	 2.155343	-4.780851	 5.868003	 0.128024	 0.011131	-5.238475	 0.332859	-7.042013	 1.938342	 2.071473	 89.490310	 62.014650	 179.295000	-17.922640	 54.241300	 4.484863	-4.221463	-3.815425	 15.410360	-6.218873	-2.253780	-1.514554	 6.214106	 19.975820	-0.671860	 2.418797	 39.996550	-7.462086	 1.583483	 19.447370	 3.068941
